<svg width="17" height="16" viewBox="0 0 17 16" fill="none" xmlns="http://www.w3.org/2000/svg">
<path d="M11.127 4.44446C10.179 4.44446 5.13277 4.44446 4.90477 4.44446C2.94121 4.44446 1.34921 6.03646 1.34921 8.00001C1.34921 9.96357 2.94121 11.5556 4.90477 11.5556C5.13277 11.5556 10.179 11.5556 11.127 11.5556C13.0905 11.5556 14.6825 9.96357 14.6825 8.00001C14.6825 6.03646 13.0905 4.44446 11.127 4.44446ZM11.127 10.6667C9.6541 10.6667 8.46032 9.4729 8.46032 8.00001C8.46032 6.52712 9.6541 5.33335 11.127 5.33335C12.5999 5.33335 13.7937 6.52712 13.7937 8.00001C13.7937 9.4729 12.5999 10.6667 11.127 10.6667Z" fill="#4A5B66"/>
</svg>
