<svg width="17" height="16" viewBox="0 0 17 16" fill="none" xmlns="http://www.w3.org/2000/svg">
<path fill-rule="evenodd" clip-rule="evenodd" d="M8.01588 2.81486C5.15218 2.81486 2.83069 5.13634 2.83069 8.00004C2.83069 10.8637 5.15218 13.1852 8.01588 13.1852C10.8796 13.1852 13.2011 10.8637 13.2011 8.00004C13.2011 5.13634 10.8796 2.81486 8.01588 2.81486ZM1.34921 8.00004C1.34921 4.31814 4.33398 1.33337 8.01588 1.33337C11.6978 1.33337 14.6825 4.31814 14.6825 8.00004C14.6825 11.6819 11.6978 14.6667 8.01588 14.6667C4.33398 14.6667 1.34921 11.6819 1.34921 8.00004ZM9.55412 5.28229C9.82779 5.58637 9.80314 6.05473 9.49906 6.32841L7.64169 8.00004L9.49906 9.67167C9.80314 9.94535 9.82779 10.4137 9.55412 10.7178C9.28045 11.0219 8.81209 11.0465 8.508 10.7729L6.03887 8.55063C5.88278 8.41015 5.79366 8.21003 5.79366 8.00004C5.79366 7.79005 5.88278 7.58993 6.03887 7.44945L8.508 5.22723C8.81209 4.95356 9.28045 4.97821 9.55412 5.28229Z" fill="#7D4EB8"/>
</svg>
