<svg width="17" height="16" viewBox="0 0 17 16" fill="none" xmlns="http://www.w3.org/2000/svg">
<path d="M6.81587 2C4.16507 2 2.01587 4.1492 2.01587 6.8C2.01587 9.4508 4.16507 11.6 6.81587 11.6C9.46667 11.6 11.6159 9.4508 11.6159 6.8C11.6159 4.1492 9.46667 2 6.81587 2ZM6.94478 2.95977H6.94829C7.11449 2.95977 7.24946 3.09474 7.24946 3.26094V3.83398C7.41386 3.86578 8.22667 4.04926 8.45767 5.08906C8.52607 5.39626 8.29746 5.69258 7.98306 5.69258H7.82837C7.58717 5.69258 7.3965 5.51413 7.3479 5.27773C7.2537 4.82293 7.00613 4.73867 6.88853 4.73867C6.80813 4.73867 6.43618 4.75974 6.43618 5.43594C6.43558 6.61614 8.5104 6.24809 8.5104 8.17109C8.5104 9.56789 7.3632 9.75722 7.1604 9.78242V10.2805C7.1604 10.4467 7.0266 10.5805 6.8604 10.5805C6.6942 10.5805 6.55923 10.4467 6.55923 10.2805V9.78242C6.39483 9.75962 5.40053 9.6502 5.16353 8.4418C5.10653 8.1508 5.34817 7.88398 5.64517 7.88398H5.8022C6.029 7.88398 6.23781 8.03756 6.27681 8.26016C6.38901 8.89676 6.78671 8.86602 6.85571 8.86602C6.94391 8.86602 7.3772 8.85007 7.3772 8.18047C7.3772 6.84307 5.30181 7.43585 5.30181 5.43125C5.30181 4.05725 6.4402 3.84338 6.6436 3.81758V3.26094C6.6436 3.09474 6.77858 2.95977 6.94478 2.95977ZM12.7502 5.95977C12.7886 6.23517 12.8159 6.5144 12.8159 6.8C12.8159 10.1138 10.1297 12.8 6.81587 12.8C6.53027 12.8 6.25103 12.7728 5.97563 12.7344C6.83003 13.5174 7.96547 14 9.21587 14C11.8667 14 14.0159 11.8508 14.0159 9.2C14.0159 7.9496 13.5332 6.81417 12.7502 5.95977Z" fill="#4A5B66"/>
</svg>
