<svg width="17" height="16" viewBox="0 0 17 16" fill="none" xmlns="http://www.w3.org/2000/svg">
<path fill-rule="evenodd" clip-rule="evenodd" d="M10.0204 13V13.5H11.0204V13H10.0204ZM9.24703 12.12C9.35804 12.0367 9.48848 12 9.61131 12H11.4295C11.5523 12 11.6828 12.0367 11.7938 12.12C11.9049 12.2033 12.0204 12.3567 12.0204 12.5682V13.9318C12.0204 14.1433 11.9049 14.2967 11.7938 14.38C11.6828 14.4633 11.5523 14.5 11.4295 14.5H9.61131C9.48848 14.5 9.35804 14.4633 9.24703 14.38C9.13586 14.2967 9.0204 14.1433 9.0204 13.9318V12.5682C9.0204 12.3567 9.13586 12.2033 9.24703 12.12Z" fill="#0D2433"/>
<path fill-rule="evenodd" clip-rule="evenodd" d="M10.0204 9.5V10H11.0204V9.5H10.0204ZM9.24703 8.61997C9.35804 8.53671 9.48848 8.5 9.61131 8.5H11.4295C11.5523 8.5 11.6828 8.53671 11.7938 8.61997C11.9049 8.70334 12.0204 8.85669 12.0204 9.06818V10.4318C12.0204 10.6433 11.9049 10.7967 11.7938 10.88C11.6828 10.9633 11.5523 11 11.4295 11H9.61131C9.48848 11 9.35804 10.9633 9.24703 10.88C9.13586 10.7967 9.0204 10.6433 9.0204 10.4318V9.06818C9.0204 8.85669 9.13586 8.70334 9.24703 8.61997Z" fill="#0D2433"/>
<path fill-rule="evenodd" clip-rule="evenodd" d="M10.0204 6V6.5H11.0204V6H10.0204ZM9.24703 5.11997C9.35804 5.03671 9.48848 5 9.61131 5H11.4295C11.5523 5 11.6828 5.03671 11.7938 5.11997C11.9049 5.20334 12.0204 5.35669 12.0204 5.56818V6.93182C12.0204 7.14331 11.9049 7.29666 11.7938 7.38003C11.6828 7.46329 11.5523 7.5 11.4295 7.5H9.61131C9.48848 7.5 9.35804 7.46329 9.24703 7.38003C9.13586 7.29666 9.0204 7.14331 9.0204 6.93182V5.56818C9.0204 5.35669 9.13586 5.20334 9.24703 5.11997Z" fill="#0D2433"/>
<path fill-rule="evenodd" clip-rule="evenodd" d="M5.01135 2.5V3.5H6.01135V2.5H5.01135ZM4.01135 2.09091C4.01135 1.76456 4.27591 1.5 4.60226 1.5H6.42044C6.74679 1.5 7.01135 1.76456 7.01135 2.09091V3.90909C7.01135 4.23544 6.74679 4.5 6.42044 4.5H4.60226C4.27591 4.5 4.01135 4.23544 4.01135 3.90909V2.09091Z" fill="#0D2433"/>
<path fill-rule="evenodd" clip-rule="evenodd" d="M5.5204 3.75C5.79654 3.75 6.0204 3.97386 6.0204 4.25V5.77419H9.5204V6.77419H6.0204V9.3871H9.32992V10.3871H6.0204V13H9.5204V14H5.5204C5.24426 14 5.0204 13.7761 5.0204 13.5V4.25C5.0204 3.97386 5.24426 3.75 5.5204 3.75Z" fill="#0D2433"/>
</svg>
