<svg width="17" height="16" viewBox="0 0 17 16" fill="none" xmlns="http://www.w3.org/2000/svg">
<path fill-rule="evenodd" clip-rule="evenodd" d="M8.98405 2.81473C6.12035 2.81473 3.79886 5.13622 3.79886 7.99992C3.79886 10.8636 6.12035 13.1851 8.98405 13.1851C11.8477 13.1851 14.1692 10.8636 14.1692 7.99992C14.1692 5.13622 11.8477 2.81473 8.98405 2.81473ZM2.31738 7.99992C2.31738 4.31802 5.30215 1.33325 8.98405 1.33325C12.6659 1.33325 15.6507 4.31802 15.6507 7.99992C15.6507 11.6818 12.6659 14.6666 8.98405 14.6666C5.30215 14.6666 2.31738 11.6818 2.31738 7.99992Z" fill="#F6F8FA"/>
<path fill-rule="evenodd" clip-rule="evenodd" d="M5.77417 7.99992C5.77417 7.59082 6.10581 7.25918 6.51491 7.25918H11.4532C11.8623 7.25918 12.1939 7.59082 12.1939 7.99992C12.1939 8.40902 11.8623 8.74066 11.4532 8.74066H6.51491C6.10581 8.74066 5.77417 8.40902 5.77417 7.99992Z" fill="#F6F8FA"/>
<path fill-rule="evenodd" clip-rule="evenodd" d="M8.98405 4.79004C9.39315 4.79004 9.72479 5.12168 9.72479 5.53078V10.4691C9.72479 10.8782 9.39315 11.2098 8.98405 11.2098C8.57495 11.2098 8.24331 10.8782 8.24331 10.4691V5.53078C8.24331 5.12168 8.57495 4.79004 8.98405 4.79004Z" fill="#F6F8FA"/>
</svg>
