<svg width="33" height="32" viewBox="0 0 33 32" fill="none" xmlns="http://www.w3.org/2000/svg">
<path fill-rule="evenodd" clip-rule="evenodd" d="M14.0675 16C14.0675 15.5582 14.4406 15.2 14.9008 15.2H26.1508C26.611 15.2 26.9841 15.5582 26.9841 16C26.9841 16.4418 26.611 16.8 26.1508 16.8H14.9008C14.4406 16.8 14.0675 16.4418 14.0675 16Z" fill="#0D2433"/>
<path fill-rule="evenodd" clip-rule="evenodd" d="M6.98413 16C6.98413 15.5582 7.35723 15.2 7.81746 15.2H10.7341C11.1944 15.2 11.5675 15.5582 11.5675 16C11.5675 16.4418 11.1944 16.8 10.7341 16.8H7.81746C7.35723 16.8 6.98413 16.4418 6.98413 16Z" fill="#0D2433"/>
<path fill-rule="evenodd" clip-rule="evenodd" d="M11.5675 16C11.5675 16.6627 12.1271 17.2 12.8175 17.2C13.5078 17.2 14.0675 16.6627 14.0675 16C14.0675 15.3373 13.5078 14.8 12.8175 14.8C12.1271 14.8 11.5675 15.3373 11.5675 16ZM12.8175 18.8C11.2066 18.8 9.9008 17.5464 9.9008 16C9.9008 14.4536 11.2066 13.2 12.8175 13.2C14.4283 13.2 15.7341 14.4536 15.7341 16C15.7341 17.5464 14.4283 18.8 12.8175 18.8Z" fill="#0D2433"/>
<path fill-rule="evenodd" clip-rule="evenodd" d="M22.4008 8.8C22.4008 8.35817 22.7739 8 23.2341 8H26.1508C26.611 8 26.9841 8.35817 26.9841 8.8C26.9841 9.24183 26.611 9.6 26.1508 9.6H23.2341C22.7739 9.6 22.4008 9.24183 22.4008 8.8Z" fill="#0D2433"/>
<path fill-rule="evenodd" clip-rule="evenodd" d="M6.98413 8.8C6.98413 8.35817 7.35723 8 7.81746 8H19.0675C19.5277 8 19.9008 8.35817 19.9008 8.8C19.9008 9.24183 19.5277 9.6 19.0675 9.6H7.81746C7.35723 9.6 6.98413 9.24183 6.98413 8.8Z" fill="#0D2433"/>
<path fill-rule="evenodd" clip-rule="evenodd" d="M19.9008 8.8C19.9008 9.46274 20.4604 10 21.1508 10C21.8412 10 22.4008 9.46274 22.4008 8.8C22.4008 8.13726 21.8412 7.6 21.1508 7.6C20.4604 7.6 19.9008 8.13726 19.9008 8.8ZM21.1508 11.6C19.54 11.6 18.2341 10.3464 18.2341 8.8C18.2341 7.2536 19.54 6 21.1508 6C22.7616 6 24.0675 7.2536 24.0675 8.8C24.0675 10.3464 22.7616 11.6 21.1508 11.6Z" fill="#0D2433"/>
<path fill-rule="evenodd" clip-rule="evenodd" d="M19.0675 23.2C19.0675 22.7582 19.4406 22.4 19.9008 22.4H26.1508C26.611 22.4 26.9841 22.7582 26.9841 23.2C26.9841 23.6418 26.611 24 26.1508 24H19.9008C19.4406 24 19.0675 23.6418 19.0675 23.2Z" fill="#0D2433"/>
<path fill-rule="evenodd" clip-rule="evenodd" d="M6.98413 23.2C6.98413 22.7582 7.35723 22.4 7.81746 22.4H15.7341C16.1944 22.4 16.5675 22.7582 16.5675 23.2C16.5675 23.6418 16.1944 24 15.7341 24H7.81746C7.35723 24 6.98413 23.6418 6.98413 23.2Z" fill="#0D2433"/>
<path fill-rule="evenodd" clip-rule="evenodd" d="M16.5675 23.2C16.5675 23.8627 17.1271 24.4 17.8175 24.4C18.5078 24.4 19.0675 23.8627 19.0675 23.2C19.0675 22.5373 18.5078 22 17.8175 22C17.1271 22 16.5675 22.5373 16.5675 23.2ZM17.8175 26C16.2066 26 14.9008 24.7464 14.9008 23.2C14.9008 21.6536 16.2066 20.4 17.8175 20.4C19.4283 20.4 20.7341 21.6536 20.7341 23.2C20.7341 24.7464 19.4283 26 17.8175 26Z" fill="#0D2433"/>
</svg>
