<svg width="17" height="16" viewBox="0 0 17 16" fill="none" xmlns="http://www.w3.org/2000/svg">
<path d="M8.01593 1.33337C7.88975 1.33337 7.76873 1.3854 7.67951 1.47801C7.59029 1.57062 7.54016 1.69623 7.54016 1.8272C7.54016 1.95817 7.59029 2.08378 7.67951 2.17639C7.76873 2.269 7.88975 2.32103 8.01593 2.32103C8.14211 2.32103 8.26313 2.269 8.35235 2.17639C8.44158 2.08378 8.4917 1.95817 8.4917 1.8272C8.4917 1.69623 8.44158 1.57062 8.35235 1.47801C8.26313 1.3854 8.14211 1.33337 8.01593 1.33337ZM5.16131 1.8272C5.03513 1.8272 4.91411 1.87923 4.82489 1.97184C4.73566 2.06445 4.68554 2.19005 4.68554 2.32103C4.68554 2.452 4.73566 2.5776 4.82489 2.67021C4.91411 2.76282 5.03513 2.81485 5.16131 2.81485C5.28749 2.81485 5.4085 2.76282 5.49773 2.67021C5.58695 2.5776 5.63708 2.452 5.63708 2.32103C5.63708 2.19005 5.58695 2.06445 5.49773 1.97184C5.4085 1.87923 5.28749 1.8272 5.16131 1.8272ZM10.8706 1.8272C10.7444 1.8272 10.6234 1.87923 10.5341 1.97184C10.4449 2.06445 10.3948 2.19005 10.3948 2.32103C10.3948 2.452 10.4449 2.5776 10.5341 2.67021C10.6234 2.76282 10.7444 2.81485 10.8706 2.81485C10.9967 2.81485 11.1178 2.76282 11.207 2.67021C11.2962 2.5776 11.3463 2.452 11.3463 2.32103C11.3463 2.19005 11.2962 2.06445 11.207 1.97184C11.1178 1.87923 10.9967 1.8272 10.8706 1.8272ZM2.30668 2.81485C2.1805 2.81485 2.05949 2.86688 1.97026 2.95949C1.88104 3.0521 1.83091 3.17771 1.83091 3.30868C1.83091 3.43965 1.88104 3.56525 1.97026 3.65786C2.05949 3.75047 2.1805 3.8025 2.30668 3.8025C2.43287 3.8025 2.55388 3.75047 2.6431 3.65786C2.73233 3.56525 2.78245 3.43965 2.78245 3.30868C2.78245 3.17771 2.73233 3.0521 2.6431 2.95949C2.55388 2.86688 2.43287 2.81485 2.30668 2.81485ZM13.7252 2.81485C13.599 2.81485 13.478 2.86688 13.3888 2.95949C13.2995 3.0521 13.2494 3.17771 13.2494 3.30868C13.2494 3.43965 13.2995 3.56525 13.3888 3.65786C13.478 3.75047 13.599 3.8025 13.7252 3.8025C13.8514 3.8025 13.9724 3.75047 14.0616 3.65786C14.1508 3.56525 14.2009 3.43965 14.2009 3.30868C14.2009 3.17771 14.1508 3.0521 14.0616 2.95949C13.9724 2.86688 13.8514 2.81485 13.7252 2.81485ZM11.3417 3.78804C11.3063 3.78879 11.271 3.79364 11.2367 3.8025H4.75802C4.73436 3.79838 4.71045 3.79613 4.68647 3.79575C4.60563 3.79529 4.52601 3.81621 4.45513 3.85654C4.38424 3.89687 4.32442 3.95529 4.28132 4.02627L1.5094 7.3837C1.45675 7.43214 1.41511 7.49208 1.38747 7.55923C1.35983 7.62637 1.34687 7.69904 1.34954 7.77201C1.35221 7.84497 1.37043 7.91641 1.40289 7.98119C1.43535 8.04597 1.48125 8.10247 1.53727 8.14663L7.6684 14.5104C7.66993 14.5124 7.67148 14.5143 7.67304 14.5162L7.67955 14.522C7.70194 14.5454 7.72653 14.5664 7.75296 14.5847C7.75419 14.5853 7.75543 14.586 7.75667 14.5866C7.76813 14.5945 7.77991 14.6019 7.79198 14.6088C7.79445 14.6098 7.79693 14.6108 7.79942 14.6117C7.8541 14.641 7.91375 14.659 7.97504 14.6647C7.99111 14.6662 8.00724 14.6669 8.02337 14.6667C8.02957 14.6665 8.03576 14.6662 8.04195 14.6657C8.05002 14.6653 8.05807 14.6646 8.06611 14.6638C8.06766 14.6638 8.06921 14.6638 8.07076 14.6638C8.07355 14.6632 8.07634 14.6625 8.07912 14.6618C8.0919 14.6601 8.10461 14.6579 8.11722 14.6551C8.12973 14.6524 8.14213 14.6492 8.15439 14.6455C8.15749 14.6445 8.16059 14.6436 8.16368 14.6426C8.1671 14.6413 8.17051 14.64 8.1739 14.6387C8.20026 14.6291 8.22576 14.6172 8.2501 14.603C8.25041 14.6027 8.25072 14.6024 8.25103 14.602C8.26181 14.5957 8.27235 14.589 8.28262 14.5818C8.28512 14.5799 8.2876 14.578 8.29006 14.576C8.31225 14.5599 8.33308 14.5418 8.35232 14.522L8.35603 14.5191C8.35823 14.5166 8.36039 14.514 8.36254 14.5114L14.4955 8.14566C14.5513 8.10142 14.597 8.04491 14.6293 7.98019C14.6616 7.91546 14.6796 7.84412 14.6822 7.77128C14.6848 7.69845 14.6718 7.62592 14.6442 7.55891C14.6166 7.4919 14.575 7.43207 14.5225 7.3837L11.771 4.05231C11.73 3.97131 11.6682 3.90372 11.5924 3.85705C11.5166 3.81039 11.4298 3.7865 11.3417 3.78804ZM8.01593 5.14702L9.46926 7.25928H6.5626L8.01593 5.14702ZM11.561 5.31388L13.1667 7.25928H11.0257L11.561 5.31388ZM4.47088 5.31484L5.00612 7.25928H2.86516L4.47088 5.31484ZM6.33029 8.24693H9.70157L8.01593 12.7965L6.33029 8.24693Z" fill="#4A5B66"/>
</svg>
