<svg width="33" height="32" viewBox="0 0 33 32" fill="none" xmlns="http://www.w3.org/2000/svg">
<path fill-rule="evenodd" clip-rule="evenodd" d="M16.9841 7.53846C12.311 7.53846 8.52259 11.3268 8.52259 16C8.52259 20.6732 12.311 24.4615 16.9841 24.4615C21.6573 24.4615 25.4457 20.6732 25.4457 16C25.4457 11.3268 21.6573 7.53846 16.9841 7.53846ZM6.98413 16C6.98413 10.4772 11.4613 6 16.9841 6C22.507 6 26.9841 10.4772 26.9841 16C26.9841 21.5228 22.507 26 16.9841 26C11.4613 26 6.98413 21.5228 6.98413 16ZM15.4457 15.2308C15.4457 14.8059 15.7901 14.4615 16.2149 14.4615H16.9841C17.409 14.4615 17.7534 14.8059 17.7534 15.2308V19.8462C18.1782 19.8462 18.5226 20.1906 18.5226 20.6154C18.5226 21.0402 18.1782 21.3846 17.7534 21.3846H16.9841C16.5593 21.3846 16.2149 21.0402 16.2149 20.6154V16C15.7901 16 15.4457 15.6556 15.4457 15.2308ZM17.9457 11.7692C17.9457 12.4065 17.4291 12.9231 16.7918 12.9231C16.1546 12.9231 15.638 12.4065 15.638 11.7692C15.638 11.132 16.1546 10.6154 16.7918 10.6154C17.4291 10.6154 17.9457 11.132 17.9457 11.7692Z" fill="#0D2433"/>
</svg>
