<svg width="17" height="16" viewBox="0 0 17 16" fill="none" xmlns="http://www.w3.org/2000/svg">
<path d="M2.46032 1.33337C2.16563 1.33337 1.88302 1.44137 1.67464 1.63361C1.46627 1.82585 1.34921 2.08659 1.34921 2.35845C1.34936 2.53826 1.40077 2.71486 1.49829 2.87053C1.5958 3.02621 1.73598 3.15549 1.90476 3.24539V14.1469C1.90372 14.2148 1.91732 14.2822 1.94477 14.3452C1.97222 14.4083 2.01298 14.4656 2.06467 14.514C2.11636 14.5624 2.17796 14.6008 2.24588 14.627C2.3138 14.6532 2.38669 14.6667 2.46032 14.6667C2.53394 14.6667 2.60683 14.6532 2.67475 14.627C2.74267 14.6008 2.80427 14.5624 2.85596 14.514C2.90765 14.4656 2.94841 14.4083 2.97586 14.3452C3.00331 14.2822 3.01691 14.2148 3.01587 14.1469V3.24439C3.18449 3.15457 3.32457 3.02545 3.42208 2.86997C3.51958 2.71448 3.57108 2.53809 3.57143 2.35845C3.57143 2.08659 3.45436 1.82585 3.24599 1.63361C3.03762 1.44137 2.755 1.33337 2.46032 1.33337ZM4.64782 3.38453C4.55594 3.38985 4.46606 3.41598 4.38523 3.46262C4.22467 3.55692 4.12698 3.72027 4.12698 3.89607V12.0967C4.12698 12.2725 4.22467 12.4359 4.38523 12.5302C4.47578 12.5824 4.57865 12.6092 4.68254 12.6092C4.76365 12.6092 4.84353 12.593 4.91908 12.5602L14.3635 8.45988C14.558 8.37531 14.6825 8.19526 14.6825 7.99639C14.6825 7.79753 14.558 7.61747 14.3635 7.5329L4.91908 3.43258C4.83297 3.39543 4.73969 3.37922 4.64782 3.38453Z" fill="#4A5B66"/>
</svg>
