<svg width="17" height="16" viewBox="0 0 17 16" fill="none" xmlns="http://www.w3.org/2000/svg">
<path d="M14.2659 12.75H13.7659V2.75C13.7659 2.61739 13.7132 2.49021 13.6194 2.39645C13.5257 2.30268 13.3985 2.25 13.2659 2.25H9.76587C9.63326 2.25 9.50608 2.30268 9.41232 2.39645C9.31855 2.49021 9.26587 2.61739 9.26587 2.75V5.25H6.26587C6.13326 5.25 6.00608 5.30268 5.91232 5.39645C5.81855 5.49021 5.76587 5.61739 5.76587 5.75V8.25H2.76587C2.63326 8.25 2.50608 8.30268 2.41232 8.39645C2.31855 8.49021 2.26587 8.61739 2.26587 8.75V12.75H1.76587C1.63326 12.75 1.50608 12.8027 1.41232 12.8964C1.31855 12.9902 1.26587 13.1174 1.26587 13.25C1.26587 13.3826 1.31855 13.5098 1.41232 13.6036C1.50608 13.6973 1.63326 13.75 1.76587 13.75H14.2659C14.3985 13.75 14.5257 13.6973 14.6194 13.6036C14.7132 13.5098 14.7659 13.3826 14.7659 13.25C14.7659 13.1174 14.7132 12.9902 14.6194 12.8964C14.5257 12.8027 14.3985 12.75 14.2659 12.75ZM6.76587 6.25H9.26587V12.75H6.76587V6.25ZM3.26587 9.25H5.76587V12.75H3.26587V9.25Z" fill="#4A5B66"/>
</svg>
