<svg width="17" height="16" viewBox="0 0 17 16" fill="none" xmlns="http://www.w3.org/2000/svg">
<path d="M6.99024 1.33337C6.85383 1.33337 6.72356 1.39423 6.62766 1.50321L6.26508 1.91308H4.28992C3.5294 1.91308 2.87417 2.55492 2.76648 3.40652L2.5892 4.81163H3.62586L3.78211 3.56956C3.81749 3.28608 4.03658 3.0725 4.28992 3.0725H6.47742C6.61383 3.0725 6.7441 3.01165 6.84 2.90267L7.20258 2.49279H8.82918L9.19176 2.90267C9.28766 3.01165 9.41793 3.0725 9.55434 3.0725H11.7418C11.9952 3.0725 12.2143 3.28663 12.2497 3.57069L12.4059 4.81163H13.4426L13.2653 3.40652C13.1571 2.55492 12.5024 1.91308 11.7418 1.91308H9.76668L9.4041 1.50321C9.3082 1.39423 9.17793 1.33337 9.04152 1.33337H6.99024ZM1.86203 5.97106C1.57896 5.97106 1.34921 6.23077 1.34921 6.55077V7.71019C1.34921 8.03019 1.57896 8.2899 1.86203 8.2899H1.94717L2.74444 13.6975C2.82701 14.2563 3.25504 14.6667 3.75606 14.6667H12.2747C12.7762 14.6667 13.2037 14.2563 13.2863 13.6975L14.0846 8.2899H14.1697C14.4528 8.2899 14.6825 8.03019 14.6825 7.71019V6.55077C14.6825 6.23077 14.4528 5.97106 14.1697 5.97106H1.86203ZM5.45178 8.86961C5.73485 8.86961 5.9646 9.12932 5.9646 9.44932V12.3479C5.9646 12.6679 5.73485 12.9276 5.45178 12.9276C5.1687 12.9276 4.93896 12.6679 4.93896 12.3479V9.44932C4.93896 9.12932 5.1687 8.86961 5.45178 8.86961ZM8.01588 8.86961C8.29896 8.86961 8.5287 9.12932 8.5287 9.44932V12.3479C8.5287 12.6679 8.29896 12.9276 8.01588 12.9276C7.7328 12.9276 7.50306 12.6679 7.50306 12.3479V9.44932C7.50306 9.12932 7.7328 8.86961 8.01588 8.86961ZM10.58 8.86961C10.8631 8.86961 11.0928 9.12932 11.0928 9.44932V12.3479C11.0928 12.6679 10.8631 12.9276 10.58 12.9276C10.2969 12.9276 10.0672 12.6679 10.0672 12.3479V9.44932C10.0672 9.12932 10.2969 8.86961 10.58 8.86961Z" fill="#4A5B66"/>
</svg>
