<svg width="17" height="16" viewBox="0 0 17 16" fill="none" xmlns="http://www.w3.org/2000/svg">
<path d="M8.01587 10.3071C9.57321 10.3071 10.8357 9.0446 10.8357 7.48727C10.8357 5.92993 9.57321 4.66746 8.01587 4.66746C6.45854 4.66746 5.19607 5.92993 5.19607 7.48727C5.19607 9.0446 6.45854 10.3071 8.01587 10.3071Z" fill="#4A5B66"/>
<path d="M8.01588 1.33496C6.69767 1.33496 5.40906 1.72586 4.313 2.45822C3.21695 3.19058 2.36268 4.23151 1.85822 5.44937C1.35376 6.66724 1.22177 8.00735 1.47894 9.30024C1.73612 10.5931 2.37089 11.7807 3.30301 12.7128C4.23513 13.6449 5.42272 14.2797 6.7156 14.5369C8.00848 14.7941 9.34859 14.6621 10.5665 14.1576C11.7843 13.6532 12.8253 12.7989 13.5576 11.7028C14.29 10.6068 14.6809 9.31817 14.6809 7.99996C14.6775 6.23333 13.9742 4.54003 12.725 3.29084C11.4758 2.04164 9.7825 1.33835 8.01588 1.33496ZM12.2328 11.7426C11.8178 11.1473 11.283 10.6452 10.6627 10.2686C9.95043 10.951 9.00221 11.3319 8.01588 11.3319C7.02955 11.3319 6.08133 10.951 5.3691 10.2686C4.74879 10.6452 4.214 11.1473 3.79898 11.7426C3.07723 10.9299 2.60572 9.92583 2.44122 8.85137C2.27672 7.77692 2.42623 6.67782 2.87175 5.68634C3.31727 4.69487 4.03983 3.85327 4.95246 3.26282C5.86509 2.67238 6.9289 2.35826 8.01588 2.35826C9.10285 2.35826 10.1667 2.67238 11.0793 3.26282C11.9919 3.85327 12.7145 4.69487 13.16 5.68634C13.6055 6.67782 13.755 7.77692 13.5905 8.85137C13.426 9.92583 12.9545 10.9299 12.2328 11.7426Z" fill="#4A5B66"/>
</svg>
